<mxfile host="app.diagrams.net" modified="2020-09-25T03:25:46.582Z" agent="5.0 (Windows NT 10.0; Win64; x64) AppleWebKit/537.36 (KHTML, like Gecko) Chrome/85.0.4183.121 Safari/537.36" etag="-Cn6x49wTUknaXZhqB3N" version="13.7.3" type="github">
  <diagram id="Bs6UO6upnDh8nRsxLj0p" name="Page-1">
    <mxGraphModel dx="868" dy="450" grid="1" gridSize="10" guides="1" tooltips="1" connect="1" arrows="1" fold="1" page="1" pageScale="1" pageWidth="827" pageHeight="1169" math="0" shadow="0">
      <root>
        <mxCell id="0" />
        <mxCell id="1" parent="0" />
        <mxCell id="q21AdUUa7zdEMvrFkGbC-3" style="edgeStyle=orthogonalEdgeStyle;rounded=0;orthogonalLoop=1;jettySize=auto;html=1;" edge="1" parent="1" source="q21AdUUa7zdEMvrFkGbC-1" target="q21AdUUa7zdEMvrFkGbC-2">
          <mxGeometry relative="1" as="geometry" />
        </mxCell>
        <mxCell id="q21AdUUa7zdEMvrFkGbC-9" style="edgeStyle=orthogonalEdgeStyle;rounded=0;orthogonalLoop=1;jettySize=auto;html=1;entryX=0.5;entryY=0;entryDx=0;entryDy=0;" edge="1" parent="1" source="q21AdUUa7zdEMvrFkGbC-1" target="q21AdUUa7zdEMvrFkGbC-4">
          <mxGeometry relative="1" as="geometry" />
        </mxCell>
        <mxCell id="q21AdUUa7zdEMvrFkGbC-1" value="Setup" style="rounded=1;whiteSpace=wrap;html=1;" vertex="1" parent="1">
          <mxGeometry x="130" y="120" width="120" height="60" as="geometry" />
        </mxCell>
        <mxCell id="q21AdUUa7zdEMvrFkGbC-2" value="Inicializar 2 leds y 1 pulsador" style="rounded=1;whiteSpace=wrap;html=1;" vertex="1" parent="1">
          <mxGeometry x="370" y="120" width="120" height="60" as="geometry" />
        </mxCell>
        <mxCell id="q21AdUUa7zdEMvrFkGbC-10" style="edgeStyle=orthogonalEdgeStyle;rounded=0;orthogonalLoop=1;jettySize=auto;html=1;entryX=0.5;entryY=0;entryDx=0;entryDy=0;" edge="1" parent="1" source="q21AdUUa7zdEMvrFkGbC-4" target="q21AdUUa7zdEMvrFkGbC-5">
          <mxGeometry relative="1" as="geometry" />
        </mxCell>
        <mxCell id="q21AdUUa7zdEMvrFkGbC-4" value="Loop" style="rounded=1;whiteSpace=wrap;html=1;" vertex="1" parent="1">
          <mxGeometry x="130" y="240" width="120" height="60" as="geometry" />
        </mxCell>
        <mxCell id="q21AdUUa7zdEMvrFkGbC-11" style="edgeStyle=orthogonalEdgeStyle;rounded=0;orthogonalLoop=1;jettySize=auto;html=1;entryX=0.5;entryY=0;entryDx=0;entryDy=0;" edge="1" parent="1" source="q21AdUUa7zdEMvrFkGbC-5" target="q21AdUUa7zdEMvrFkGbC-7">
          <mxGeometry relative="1" as="geometry" />
        </mxCell>
        <mxCell id="q21AdUUa7zdEMvrFkGbC-12" style="edgeStyle=orthogonalEdgeStyle;rounded=0;orthogonalLoop=1;jettySize=auto;html=1;entryX=0;entryY=0.5;entryDx=0;entryDy=0;" edge="1" parent="1" source="q21AdUUa7zdEMvrFkGbC-5" target="q21AdUUa7zdEMvrFkGbC-6">
          <mxGeometry relative="1" as="geometry" />
        </mxCell>
        <mxCell id="q21AdUUa7zdEMvrFkGbC-5" value="Pulsador sin presionar" style="rounded=1;whiteSpace=wrap;html=1;" vertex="1" parent="1">
          <mxGeometry x="130" y="360" width="120" height="60" as="geometry" />
        </mxCell>
        <mxCell id="q21AdUUa7zdEMvrFkGbC-6" value="Led 1 encendido" style="rounded=1;whiteSpace=wrap;html=1;" vertex="1" parent="1">
          <mxGeometry x="370" y="360" width="120" height="60" as="geometry" />
        </mxCell>
        <mxCell id="q21AdUUa7zdEMvrFkGbC-13" style="edgeStyle=orthogonalEdgeStyle;rounded=0;orthogonalLoop=1;jettySize=auto;html=1;entryX=0;entryY=0.5;entryDx=0;entryDy=0;" edge="1" parent="1" source="q21AdUUa7zdEMvrFkGbC-7" target="q21AdUUa7zdEMvrFkGbC-8">
          <mxGeometry relative="1" as="geometry" />
        </mxCell>
        <mxCell id="q21AdUUa7zdEMvrFkGbC-14" style="edgeStyle=orthogonalEdgeStyle;rounded=0;orthogonalLoop=1;jettySize=auto;html=1;entryX=0;entryY=0.5;entryDx=0;entryDy=0;" edge="1" parent="1" source="q21AdUUa7zdEMvrFkGbC-7" target="q21AdUUa7zdEMvrFkGbC-4">
          <mxGeometry relative="1" as="geometry">
            <Array as="points">
              <mxPoint x="110" y="510" />
              <mxPoint x="110" y="270" />
            </Array>
          </mxGeometry>
        </mxCell>
        <mxCell id="q21AdUUa7zdEMvrFkGbC-7" value="Pulsador presionado" style="rounded=1;whiteSpace=wrap;html=1;" vertex="1" parent="1">
          <mxGeometry x="130" y="480" width="120" height="60" as="geometry" />
        </mxCell>
        <mxCell id="q21AdUUa7zdEMvrFkGbC-8" value="Led 1 apagado" style="rounded=1;whiteSpace=wrap;html=1;" vertex="1" parent="1">
          <mxGeometry x="370" y="480" width="120" height="60" as="geometry" />
        </mxCell>
      </root>
    </mxGraphModel>
  </diagram>
</mxfile>
